PathFileType	4	(X/Y/Z)	C:\Users\italobelli\Desktop\GitHub\PTbot_officialCBL\Personal_Results\SHRUG22_noisy2.trc
DataRate	CameraRate	NumFrames	NumMarkers	Units	OrigDataRate	OrigDataStartFrame	OrigNumFrames
110.888889	110.888889	47	9	m	110.888889	188	500
Frame#	Time		gu		centelbow		EpL		centpxt8		centijc7		ij		ts		aa		ai
			X1	Y1	Z1	X2	Y2	Z2	X3	Y3	Z3	X4	Y4	Z4	X5	Y5	Z5	X6	Y6	Z6	X7	Y7	Z7	X8	Y8	Z8	X9	Y9	Z9

188	1.6864	-0.12811	0.05022	0.14997	-0.12843	-0.18087	0.21892	-0.12515	-0.16765	0.24814	-0.046816	-0.15316	-0.008669	-0.046816	0.031938	-0.008669	0	0	0	-0.13026	0.042037	0.015068	-0.15874	0.080202	0.12447	-0.14207	-0.063824	0.054764
189	1.6954	-0.12809	0.05022	0.14993	-0.12832	-0.18104	0.21885	-0.12504	-0.16782	0.24807	-0.046816	-0.15316	-0.008669	-0.046816	0.031938	-0.008669	0	0	0	-0.13025	0.042035	0.015047	-0.15873	0.08021	0.12444	-0.14206	-0.063822	0.05475
190	1.7044	-0.12807	0.05022	0.14989	-0.12821	-0.18121	0.21878	-0.12492	-0.16799	0.248	-0.046816	-0.15316	-0.008669	-0.046816	0.031938	-0.008669	0	0	0	-0.13025	0.042032	0.015028	-0.15871	0.080218	0.12442	-0.14205	-0.06382	0.054735
191	1.7134	-0.12805	0.05022	0.14985	-0.1281	-0.18138	0.2187	-0.1248	-0.16817	0.24793	-0.046816	-0.15316	-0.008669	-0.046816	0.031938	-0.008669	0	0	0	-0.13024	0.042029	0.015008	-0.1587	0.080225	0.1244	-0.14204	-0.063817	0.05472
192	1.7224	-0.12803	0.05022	0.14981	-0.12798	-0.18155	0.21863	-0.12468	-0.16835	0.24786	-0.046816	-0.15316	-0.008669	-0.046816	0.031938	-0.008669	0	0	0	-0.13023	0.042025	0.01499	-0.15869	0.080231	0.12438	-0.14203	-0.063815	0.054704
193	1.7315	-0.12801	0.050219	0.14978	-0.12787	-0.18173	0.21855	-0.12456	-0.16854	0.24778	-0.046816	-0.15316	-0.008669	-0.046816	0.031938	-0.008669	0	0	0	-0.13023	0.042022	0.014972	-0.15867	0.080236	0.12436	-0.14202	-0.063813	0.054688
194	1.7405	-0.12799	0.050219	0.14974	-0.12775	-0.18191	0.21847	-0.12443	-0.16872	0.24771	-0.046816	-0.15316	-0.008669	-0.046816	0.031938	-0.008669	0	0	0	-0.13022	0.042018	0.014954	-0.15866	0.08024	0.12434	-0.14202	-0.063811	0.054671
195	1.7495	-0.12797	0.050218	0.1497	-0.12764	-0.18209	0.21839	-0.12431	-0.16891	0.24763	-0.046816	-0.15316	-0.008669	-0.046816	0.031938	-0.008669	0	0	0	-0.13022	0.042015	0.014937	-0.15865	0.080244	0.12432	-0.14201	-0.063809	0.054654
196	1.7585	-0.12794	0.050217	0.14967	-0.12752	-0.18227	0.21831	-0.12418	-0.1691	0.24756	-0.046816	-0.15316	-0.008669	-0.046816	0.031938	-0.008669	0	0	0	-0.13021	0.042011	0.014921	-0.15863	0.080247	0.12431	-0.142	-0.063807	0.054636
197	1.7675	-0.12792	0.050217	0.14964	-0.1274	-0.18245	0.21823	-0.12406	-0.16929	0.24748	-0.046816	-0.15316	-0.008669	-0.046816	0.031938	-0.008669	0	0	0	-0.13021	0.042007	0.014905	-0.15862	0.080249	0.12429	-0.14199	-0.063806	0.054617
198	1.7766	-0.12789	0.050216	0.14961	-0.12728	-0.18264	0.21815	-0.12394	-0.16948	0.2474	-0.046816	-0.15316	-0.008669	-0.046816	0.031938	-0.008669	0	0	0	-0.1302	0.042003	0.01489	-0.1586	0.08025	0.12428	-0.14199	-0.063804	0.054599
199	1.7856	-0.12787	0.050215	0.14958	-0.12717	-0.18282	0.21807	-0.12381	-0.16967	0.24732	-0.046816	-0.15316	-0.008669	-0.046816	0.031938	-0.008669	0	0	0	-0.13019	0.042	0.014876	-0.15858	0.080251	0.12426	-0.14198	-0.063802	0.054579
200	1.7946	-0.12784	0.050214	0.14955	-0.12705	-0.18301	0.21799	-0.12369	-0.16987	0.24724	-0.046816	-0.15316	-0.008669	-0.046816	0.031938	-0.008669	0	0	0	-0.13019	0.041996	0.014862	-0.15857	0.08025	0.12425	-0.14197	-0.063801	0.05456
201	1.8036	-0.12782	0.050214	0.14952	-0.12694	-0.1832	0.21791	-0.12357	-0.17006	0.24717	-0.046816	-0.15316	-0.008669	-0.046816	0.031938	-0.008669	0	0	0	-0.13019	0.041993	0.014848	-0.15855	0.080249	0.12424	-0.14197	-0.063799	0.05454
202	1.8126	-0.12779	0.050213	0.14949	-0.12682	-0.18338	0.21783	-0.12345	-0.17026	0.24709	-0.046816	-0.15316	-0.008669	-0.046816	0.031938	-0.008669	0	0	0	-0.13018	0.041989	0.014835	-0.15853	0.080248	0.12422	-0.14196	-0.063798	0.05452
203	1.8216	-0.12776	0.050213	0.14947	-0.12671	-0.18357	0.21775	-0.12334	-0.17045	0.24701	-0.046816	-0.15316	-0.008669	-0.046816	0.031938	-0.008669	0	0	0	-0.13018	0.041986	0.014823	-0.15852	0.080245	0.12421	-0.14196	-0.063797	0.0545
204	1.8307	-0.12773	0.050213	0.14945	-0.1266	-0.18375	0.21766	-0.12322	-0.17064	0.24693	-0.046816	-0.15316	-0.008669	-0.046816	0.031938	-0.008669	0	0	0	-0.13017	0.041983	0.014811	-0.1585	0.080242	0.1242	-0.14195	-0.063796	0.054479
205	1.8397	-0.12771	0.050213	0.14942	-0.1265	-0.18394	0.21758	-0.12311	-0.17083	0.24685	-0.046816	-0.15316	-0.008669	-0.046816	0.031938	-0.008669	0	0	0	-0.13017	0.041981	0.0148	-0.15848	0.080238	0.12419	-0.14195	-0.063794	0.054458
206	1.8487	-0.12768	0.050213	0.1494	-0.1264	-0.18412	0.2175	-0.12301	-0.17103	0.24677	-0.046816	-0.15316	-0.008669	-0.046816	0.031938	-0.008669	0	0	0	-0.13016	0.041978	0.014789	-0.15847	0.080233	0.12419	-0.14194	-0.063793	0.054438
207	1.8577	-0.12765	0.050213	0.14939	-0.1263	-0.1843	0.21742	-0.12291	-0.17122	0.2467	-0.046816	-0.15316	-0.008669	-0.046816	0.031938	-0.008669	0	0	0	-0.13016	0.041976	0.014779	-0.15845	0.080227	0.12418	-0.14194	-0.063792	0.054417
208	1.8667	-0.12762	0.050214	0.14937	-0.1262	-0.18448	0.21734	-0.12281	-0.1714	0.24662	-0.046816	-0.15316	-0.008669	-0.046816	0.031938	-0.008669	0	0	0	-0.13015	0.041974	0.01477	-0.15843	0.080221	0.12417	-0.14193	-0.063792	0.054395
209	1.8758	-0.12759	0.050215	0.14935	-0.12611	-0.18466	0.21726	-0.12271	-0.17159	0.24654	-0.046816	-0.15316	-0.008669	-0.046816	0.031938	-0.008669	0	0	0	-0.13015	0.041973	0.014761	-0.15841	0.080214	0.12417	-0.14193	-0.063791	0.054374
210	1.8848	-0.12756	0.050216	0.14934	-0.12602	-0.18484	0.21718	-0.12262	-0.17177	0.24647	-0.046816	-0.15316	-0.008669	-0.046816	0.031938	-0.008669	0	0	0	-0.13015	0.041972	0.014752	-0.15839	0.080206	0.12416	-0.14192	-0.06379	0.054353
211	1.8938	-0.12753	0.050218	0.14933	-0.12594	-0.18501	0.2171	-0.12254	-0.17196	0.24639	-0.046816	-0.15316	-0.008669	-0.046816	0.031938	-0.008669	0	0	0	-0.13014	0.041972	0.014744	-0.15838	0.080198	0.12416	-0.14192	-0.063789	0.054332
212	1.9028	-0.1275	0.05022	0.14931	-0.12586	-0.18518	0.21703	-0.12246	-0.17213	0.24632	-0.046816	-0.15316	-0.008669	-0.046816	0.031938	-0.008669	0	0	0	-0.13014	0.041972	0.014737	-0.15836	0.080189	0.12416	-0.14192	-0.063789	0.05431
213	1.9118	-0.12747	0.050223	0.14931	-0.12579	-0.18535	0.21695	-0.12239	-0.17231	0.24624	-0.046816	-0.15316	-0.008669	-0.046816	0.031938	-0.008669	0	0	0	-0.13014	0.041973	0.01473	-0.15834	0.080179	0.12416	-0.14191	-0.063788	0.054289
214	1.9208	-0.12744	0.050226	0.1493	-0.12572	-0.18552	0.21687	-0.12232	-0.17248	0.24617	-0.046816	-0.15316	-0.008669	-0.046816	0.031938	-0.008669	0	0	0	-0.13013	0.041974	0.014724	-0.15832	0.080168	0.12416	-0.14191	-0.063788	0.054268
215	1.9299	-0.12741	0.050229	0.14929	-0.12566	-0.18568	0.2168	-0.12226	-0.17265	0.2461	-0.046816	-0.15316	-0.008669	-0.046816	0.031938	-0.008669	0	0	0	-0.13013	0.041976	0.014718	-0.1583	0.080156	0.12416	-0.14191	-0.063788	0.054247
216	1.9389	-0.12738	0.050233	0.14929	-0.12561	-0.18583	0.21673	-0.12221	-0.17282	0.24603	-0.046816	-0.15316	-0.008669	-0.046816	0.031938	-0.008669	0	0	0	-0.13013	0.041979	0.014713	-0.15828	0.080144	0.12416	-0.1419	-0.063787	0.054226
217	1.9479	-0.12735	0.050238	0.14929	-0.12556	-0.18599	0.21666	-0.12216	-0.17298	0.24596	-0.046816	-0.15316	-0.008669	-0.046816	0.031938	-0.008669	0	0	0	-0.13012	0.041982	0.014708	-0.15827	0.080131	0.12416	-0.1419	-0.063787	0.054206
218	1.9569	-0.12732	0.050243	0.14929	-0.12552	-0.18614	0.21659	-0.12212	-0.17313	0.2459	-0.046816	-0.15316	-0.008669	-0.046816	0.031938	-0.008669	0	0	0	-0.13012	0.041986	0.014704	-0.15825	0.080118	0.12417	-0.1419	-0.063787	0.054185
219	1.9659	-0.12729	0.050248	0.14929	-0.12548	-0.18628	0.21652	-0.12209	-0.17328	0.24583	-0.046816	-0.15316	-0.008669	-0.046816	0.031938	-0.008669	0	0	0	-0.13012	0.041991	0.014701	-0.15823	0.080103	0.12417	-0.1419	-0.063787	0.054165
220	1.9749	-0.12726	0.050254	0.14929	-0.12546	-0.18642	0.21645	-0.12207	-0.17343	0.24577	-0.046816	-0.15316	-0.008669	-0.046816	0.031938	-0.008669	0	0	0	-0.13012	0.041996	0.014698	-0.15821	0.080088	0.12418	-0.14189	-0.063787	0.054145
221	1.984	-0.12722	0.050261	0.1493	-0.12544	-0.18655	0.21639	-0.12206	-0.17357	0.2457	-0.046816	-0.15316	-0.008669	-0.046816	0.031938	-0.008669	0	0	0	-0.13011	0.042003	0.014695	-0.15819	0.080073	0.12418	-0.14189	-0.063787	0.054126
222	1.993	-0.12719	0.050269	0.1493	-0.12543	-0.18668	0.21633	-0.12206	-0.17371	0.24565	-0.046816	-0.15316	-0.008669	-0.046816	0.031938	-0.008669	0	0	0	-0.13011	0.04201	0.014693	-0.15817	0.080056	0.12419	-0.14189	-0.063788	0.054107
223	2.002	-0.12716	0.050277	0.14931	-0.12543	-0.18681	0.21627	-0.12206	-0.17384	0.24559	-0.046816	-0.15316	-0.008669	-0.046816	0.031938	-0.008669	0	0	0	-0.13011	0.042018	0.014692	-0.15816	0.080039	0.1242	-0.14189	-0.063788	0.054088
224	2.011	-0.12713	0.050285	0.14932	-0.12544	-0.18693	0.21621	-0.12208	-0.17397	0.24553	-0.046816	-0.15316	-0.008669	-0.046816	0.031938	-0.008669	0	0	0	-0.13011	0.042026	0.01469	-0.15814	0.080022	0.12421	-0.14189	-0.063788	0.054069
225	2.02	-0.1271	0.050294	0.14933	-0.12545	-0.18705	0.21615	-0.12209	-0.17409	0.24547	-0.046816	-0.15316	-0.008669	-0.046816	0.031938	-0.008669	0	0	0	-0.1301	0.042035	0.014689	-0.15812	0.080004	0.12422	-0.14189	-0.063789	0.05405
226	2.0291	-0.12707	0.050303	0.14934	-0.12547	-0.18717	0.21609	-0.12212	-0.17422	0.24542	-0.046816	-0.15316	-0.008669	-0.046816	0.031938	-0.008669	0	0	0	-0.1301	0.042043	0.014688	-0.1581	0.079987	0.12423	-0.14189	-0.063789	0.054031
227	2.0381	-0.12704	0.050313	0.14935	-0.12549	-0.18728	0.21603	-0.12215	-0.17434	0.24536	-0.046816	-0.15316	-0.008669	-0.046816	0.031938	-0.008669	0	0	0	-0.1301	0.042051	0.014686	-0.15808	0.07997	0.12424	-0.14189	-0.06379	0.054012
228	2.0471	-0.12701	0.050322	0.14936	-0.12552	-0.1874	0.21597	-0.12218	-0.17446	0.2453	-0.046816	-0.15316	-0.008669	-0.046816	0.031938	-0.008669	0	0	0	-0.1301	0.04206	0.014685	-0.15807	0.079952	0.12425	-0.14188	-0.06379	0.053993
229	2.0561	-0.12698	0.050332	0.14937	-0.12556	-0.18751	0.21591	-0.12222	-0.17459	0.24525	-0.046816	-0.15316	-0.008669	-0.046816	0.031938	-0.008669	0	0	0	-0.1301	0.042068	0.014683	-0.15805	0.079935	0.12426	-0.14188	-0.06379	0.053974
230	2.0651	-0.12695	0.050342	0.14938	-0.1256	-0.18763	0.21586	-0.12227	-0.17471	0.24519	-0.046816	-0.15316	-0.008669	-0.046816	0.031938	-0.008669	0	0	0	-0.13009	0.042076	0.014682	-0.15803	0.079917	0.12427	-0.14188	-0.063791	0.053955
231	2.0741	-0.12692	0.050352	0.14939	-0.12564	-0.18774	0.2158	-0.12231	-0.17483	0.24514	-0.046816	-0.15316	-0.008669	-0.046816	0.031938	-0.008669	0	0	0	-0.13009	0.042085	0.014681	-0.15801	0.0799	0.12428	-0.14188	-0.063791	0.053935
232	2.0832	-0.12689	0.050362	0.1494	-0.12569	-0.18786	0.21574	-0.12237	-0.17495	0.24508	-0.046816	-0.15316	-0.008669	-0.046816	0.031938	-0.008669	0	0	0	-0.13009	0.042093	0.014679	-0.158	0.079882	0.12429	-0.14188	-0.063792	0.053916
233	2.0922	-0.12686	0.050372	0.14941	-0.12574	-0.18797	0.21568	-0.12242	-0.17507	0.24503	-0.046816	-0.15316	-0.008669	-0.046816	0.031938	-0.008669	0	0	0	-0.13009	0.042102	0.014678	-0.15798	0.079865	0.1243	-0.14188	-0.063792	0.053896
234	2.1012	-0.12683	0.050383	0.14942	-0.1258	-0.18808	0.21562	-0.12248	-0.17518	0.24497	-0.046816	-0.15316	-0.008669	-0.046816	0.031938	-0.008669	0	0	0	-0.13008	0.04211	0.014677	-0.15796	0.079847	0.12431	-0.14188	-0.063792	0.053876
